<svg width="81" height="81" viewBox="0 0 81 81" fill="none" xmlns="http://www.w3.org/2000/svg">
<g filter="url(#filter0_d)">
<circle cx="40.5" cy="36.5" r="20.5" fill="url(#paint0_linear)"/>
</g>
<path d="M48.4221 39.4515C47.2666 39.4515 46.1321 39.2707 45.0569 38.9155C44.5301 38.7358 43.8825 38.9006 43.561 39.2308L41.4389 40.8328C38.9779 39.5191 37.462 38.0036 36.1662 35.5611L37.721 33.4943C38.125 33.0909 38.2699 32.5016 38.0963 31.9487C37.7394 30.8679 37.5582 29.7339 37.5582 28.578C37.5582 27.7429 36.8789 27.0635 36.0438 27.0635H32.5779C31.7429 27.0635 31.0635 27.7429 31.0635 28.5779C31.0635 38.1496 38.8504 45.9365 48.4221 45.9365C49.2571 45.9365 49.9365 45.2571 49.9365 44.4221V40.9658C49.9364 40.1308 49.2571 39.4515 48.4221 39.4515Z" fill="white"/>
<defs>
<filter id="filter0_d" x="0" y="0" width="81" height="81" filterUnits="userSpaceOnUse" color-interpolation-filters="sRGB">
<feFlood flood-opacity="0" result="BackgroundImageFix"/>
<feColorMatrix in="SourceAlpha" type="matrix" values="0 0 0 0 0 0 0 0 0 0 0 0 0 0 0 0 0 0 127 0"/>
<feOffset dy="4"/>
<feGaussianBlur stdDeviation="10"/>
<feColorMatrix type="matrix" values="0 0 0 0 0.415686 0 0 0 0 0.721569 0 0 0 0 0.176471 0 0 0 0.67 0"/>
<feBlend mode="normal" in2="BackgroundImageFix" result="effect1_dropShadow"/>
<feBlend mode="normal" in="SourceGraphic" in2="effect1_dropShadow" result="shape"/>
</filter>
<linearGradient id="paint0_linear" x1="30.8091" y1="17.1182" x2="53.1727" y2="52.9" gradientUnits="userSpaceOnUse">
<stop stop-color="#417E10"/>
<stop offset="1" stop-color="#69B82B" stop-opacity="0.89"/>
</linearGradient>
</defs>
</svg>
