<svg width="29" height="29" viewBox="0 0 29 29" fill="#000000" xmlns="http://www.w3.org/2000/svg">
<g clip-path="url(#clip0)">
<path d="M20.9926 22.394L21.2596 22.342C21.5738 22.2816 29.0001 20.8256 29.0001 16.9155C29.0001 15.6999 28.6074 14.8312 27.8304 14.3321C26.7091 13.6095 25.1383 13.9261 24.1668 14.2354V13.2905C24.1668 12.2912 23.3536 11.478 22.3543 11.478H5.43793C4.43863 11.478 3.62546 12.2912 3.62546 13.2905V14.4988C3.62546 18.1032 5.30624 21.4104 8.09019 23.5611H0.604698C0.360638 23.5611 0.139517 23.7086 0.0464579 23.9345C-0.0477904 24.1604 0.00414814 24.4202 0.176956 24.5931L1.53149 25.9476C2.33141 26.7463 3.39352 27.1861 4.52206 27.1861H23.269C24.3819 27.1861 25.4718 26.7342 26.2596 25.9476L27.6142 24.5931C27.787 24.4202 27.8389 24.1605 27.7447 23.9345C27.6504 23.7086 27.4305 23.5611 27.1864 23.5611H19.6997C20.1649 23.2035 20.5938 22.8133 20.9926 22.394ZM24.0955 15.5368C24.8592 15.2468 26.3841 14.836 27.1767 15.3495C27.5912 15.6141 27.7918 16.1276 27.7918 16.9154C27.7918 18.9248 24.4326 20.2697 22.213 20.8763C23.2666 19.3031 23.9203 17.4785 24.0955 15.5368Z" fill="black"/>
<path d="M18.6013 6.41924C19.5836 5.19158 19.5836 3.26917 18.6013 2.04151C18.3898 1.78051 18.0104 1.74064 17.7519 1.94726C17.4909 2.15507 17.4498 2.53569 17.6576 2.79668C18.2811 3.57361 18.2811 4.88708 17.6552 5.66644C16.6716 6.89286 16.6716 8.81651 17.654 10.0442C17.7748 10.194 17.9488 10.2714 18.1264 10.2714C18.2593 10.2714 18.3935 10.2279 18.5046 10.1384C18.7656 9.93062 18.8067 9.55 18.5988 9.289C17.9754 8.51202 17.9754 7.1986 18.6013 6.41924Z" fill="black"/>
<path d="M14.9703 6.41888C15.9539 5.19121 15.9539 3.26881 14.9703 2.04114C14.7625 1.78134 14.3831 1.73909 14.1209 1.9469C13.8599 2.15471 13.8188 2.53533 14.0266 2.79632C14.6489 3.57325 14.6489 4.88672 14.0254 5.66608C13.0419 6.8925 13.0419 8.81615 14.0254 10.0438C14.1451 10.1936 14.3203 10.271 14.4979 10.271C14.6296 10.271 14.7637 10.2275 14.8749 10.1381C15.1347 9.93025 15.1769 9.54963 14.9691 9.28864C14.3468 8.51166 14.3468 7.19824 14.9703 6.41888Z" fill="black"/>
<path d="M11.3503 6.41771C12.3326 5.19005 12.3326 3.26764 11.3503 2.03998C11.1425 1.78017 10.7618 1.73668 10.5008 1.94692C10.241 2.15473 10.1988 2.53535 10.4078 2.79516C11.0301 3.57208 11.0301 4.88556 10.4066 5.66492C9.4218 6.89258 9.4218 8.81618 10.4054 10.0438C10.525 10.1925 10.7002 10.2698 10.8778 10.2698C11.0095 10.2698 11.1436 10.2263 11.2548 10.1368C11.5158 9.92903 11.5569 9.54841 11.3491 9.28742C10.7267 8.51049 10.7267 7.19708 11.3503 6.41771Z" fill="black"/>
</g>
<defs>
<clipPath id="clip0">
<rect width="29" height="29" fill="white"/>
</clipPath>
</defs>
</svg>
