<svg width="52" height="52" viewBox="0 0 52 52" fill="none" xmlns="http://www.w3.org/2000/svg">
<path d="M25.9992 0C15.4441 0 6.85596 8.58817 6.85596 19.1443C6.85596 21.8978 7.41953 24.5267 8.53017 26.9587C13.3165 37.4324 22.4933 48.4903 25.1924 51.6296C25.3947 51.8643 25.6895 51.9995 25.9997 51.9995C26.31 51.9995 26.6048 51.8643 26.807 51.6296C29.5051 48.4909 38.6819 37.4334 43.4698 26.9587C44.581 24.5267 45.144 21.8978 45.144 19.1443C45.143 8.58817 36.5548 0 25.9992 0ZM25.9992 29.0879C20.5162 29.0879 16.0551 24.6267 16.0551 19.1438C16.0551 13.6603 20.5162 9.1991 25.9992 9.1991C31.4822 9.1991 35.9433 13.6603 35.9433 19.1438C35.9439 24.6267 31.4827 29.0879 25.9992 29.0879Z" fill="white"/>
</svg>
