<svg width="52" height="52" viewBox="0 0 52 52" fill="none" xmlns="http://www.w3.org/2000/svg">
<path d="M47.8274 34.132C44.6438 34.132 41.5178 33.6341 38.5556 32.6552C37.1041 32.1601 35.3197 32.6143 34.4338 33.5242L28.5869 37.9379C21.8062 34.3184 17.6294 30.1429 14.0593 23.4131L18.3432 17.7186C19.4562 16.6071 19.8554 14.9834 19.3771 13.46C18.394 10.4822 17.8946 7.35773 17.8946 4.17273C17.8947 1.87186 16.0229 0 13.7221 0H4.17258C1.87186 0 0 1.87186 0 4.17259C0 30.545 21.4551 52 47.8274 52C50.1281 52 52 50.1281 52 47.8274V38.3045C51.9999 36.0039 50.128 34.132 47.8274 34.132Z" fill="white"/>
</svg>
