<svg width="52" height="52" viewBox="0 0 52 52" fill="none" xmlns="http://www.w3.org/2000/svg">
<path d="M47.4297 6.19531H4.5703C3.86677 6.19531 3.20814 6.36827 2.61227 6.65336L25.8984 29.9395L31.1176 24.9236C31.1176 24.9236 31.118 24.9231 31.1181 24.9229C31.1182 24.9227 31.1186 24.9225 31.1186 24.9225L49.3884 6.65377C48.7924 6.36848 48.1334 6.19531 47.4297 6.19531Z" fill="white"/>
<path d="M51.5426 8.80811L34.3498 26L51.542 43.1922C51.827 42.5963 52 41.9377 52 41.2342V10.7654C52 10.0623 51.8274 9.40377 51.5426 8.80811Z" fill="white"/>
<path d="M0.458047 8.80762C0.172961 9.40348 0 10.0621 0 10.7656V41.2344C0 41.9375 0.172758 42.5962 0.457641 43.1919L17.6504 26L0.458047 8.80762Z" fill="white"/>
<path d="M32.1955 28.1545L26.9756 33.171C26.678 33.4686 26.2882 33.6173 25.8985 33.6173C25.5089 33.6173 25.119 33.4686 24.8215 33.171L19.8047 28.1543L2.61159 45.3463C3.20756 45.6316 3.8666 45.8047 4.57032 45.8047H47.4297C48.1332 45.8047 48.7919 45.6318 49.3877 45.3467L32.1955 28.1545Z" fill="white"/>
</svg>
