<svg width="50" height="50" viewBox="0 0 50 50" fill="none" xmlns="http://www.w3.org/2000/svg">
<path d="M11.1652 13.783C8.61486 13.783 6.54755 11.7154 6.54755 9.16532C6.54755 6.61493 8.61486 4.54791 11.1652 4.54791C13.7153 4.54791 15.7826 6.61493 15.7826 9.16532C15.7802 11.7142 13.7141 13.7803 11.1652 13.783ZM11.1652 6.08705C9.46489 6.08705 8.08668 7.46496 8.08668 9.16532C8.08668 10.8654 9.46489 12.2439 11.1652 12.2439C12.8653 12.2439 14.2435 10.8654 14.2435 9.16532C14.2435 7.46496 12.8653 6.08705 11.1652 6.08705Z" fill="white"/>
<path d="M29.6355 35.3318V39.9495H21.1701V29.3897L16.5524 27.8503V19.9399H23.4786C25.6028 19.9371 27.3242 18.2157 27.3269 16.0919V14.5527H5.77783C3.65366 14.5548 1.93255 16.2763 1.92984 18.4007V26.8661C1.92984 28.1411 2.96365 29.175 4.23869 29.175H5.77783V43.0278H1.92984V48.4152H3.46927V44.5669H14.2435V48.4152H15.7826V41.4886H29.6355V48.4152H31.1749V36.8709H46.5668V48.4152H48.106V35.3318H29.6355ZM5.77783 19.1701V27.6358H4.23869C3.81368 27.6358 3.46927 27.2911 3.46927 26.8661V18.4007C3.46927 17.1251 4.50278 16.0919 5.77783 16.0919H25.7875C25.7875 17.3669 24.7537 18.4007 23.4786 18.4007H15.0132V28.9602L19.6306 30.4993V39.9495H17.3221V31.7199L9.62581 28.8339V43.0278H7.31726V19.1701H5.77783ZM14.2435 39.9495V43.0278H11.1652V31.0552L15.7826 32.7865V39.9495H14.2435Z" fill="white"/>
<path d="M35.7923 33.023H41.9491V13.783H46.4053L38.8708 1.54004L31.3364 13.783H35.7923V33.023ZM34.0916 12.2439L38.8708 4.47664L43.6501 12.2439H40.41V31.4838H37.3317V12.2439H34.0916Z" fill="white"/>
</svg>
