<svg width="19" height="19" viewBox="0 0 19 19" fill="none" xmlns="http://www.w3.org/2000/svg">
<path d="M17.4221 12.4515C16.2666 12.4515 15.1321 12.2707 14.0569 11.9155C13.5301 11.7358 12.8825 11.9006 12.561 12.2308L10.4389 13.8328C7.97788 12.5191 6.46195 11.0036 5.16621 8.56112L6.72101 6.49432C7.12496 6.09091 7.26985 5.50162 7.09626 4.9487C6.73944 3.86793 6.55819 2.73393 6.55819 1.57795C6.55823 0.742871 5.87886 0.0634918 5.04383 0.0634918H1.57788C0.742854 0.0634918 0.0634766 0.742871 0.0634766 1.5779C0.0634766 11.1496 7.85044 18.9365 17.4221 18.9365C18.2571 18.9365 18.9365 18.2571 18.9365 17.4221V13.9658C18.9364 13.1308 18.2571 12.4515 17.4221 12.4515Z" fill="white"/>
</svg>
