<svg width="23" height="23" viewBox="0 0 23 23" fill="none" xmlns="http://www.w3.org/2000/svg">
<g clip-path="url(#clip0)">
<path d="M1.43747 1.56496C-0.369949 3.44234 -3.28422e-05 5.43663 -3.28422e-05 11.4952C-3.28422e-05 16.5265 -0.877866 21.5702 3.71638 22.7575C5.15101 23.1265 17.8623 23.1265 19.295 22.7556C21.2079 22.2621 22.7642 20.7105 22.977 18.0052C23.0067 17.6276 23.0067 5.36954 22.976 4.98429C22.7498 2.10259 20.976 0.441795 18.6386 0.10542C18.1029 0.0277954 17.9956 0.00479544 15.2471 3.76999e-06C5.49792 0.00479544 3.36084 -0.42933 1.43747 1.56496Z" fill="url(#paint0_linear)"/>
<path d="M11.4981 3.0082C8.01836 3.0082 4.71403 2.69865 3.4519 5.93782C2.93057 7.27565 3.00628 9.01311 3.00628 11.5009C3.00628 13.684 2.93632 15.7358 3.4519 17.0631C4.71115 20.3042 8.04232 19.9937 11.4962 19.9937C14.8283 19.9937 18.2639 20.3406 19.5414 17.0631C20.0637 15.7119 19.987 14.0003 19.987 11.5009C19.987 8.1832 20.17 6.04132 18.561 4.43324C16.9318 2.80407 14.7286 3.0082 11.4942 3.0082H11.4981ZM10.7372 4.53865C17.9956 4.52715 18.9194 3.72024 18.4096 14.9299C18.2284 18.8945 15.2097 18.4594 11.499 18.4594C4.73319 18.4594 4.53865 18.2658 4.53865 11.4971C4.53865 4.64982 5.07532 4.54249 10.7372 4.53674V4.53865ZM16.031 5.94836C15.4684 5.94836 15.0123 6.40453 15.0123 6.96707C15.0123 7.52961 15.4684 7.98578 16.031 7.98578C16.5935 7.98578 17.0497 7.52961 17.0497 6.96707C17.0497 6.40453 16.5935 5.94836 16.031 5.94836ZM11.4981 7.13957C9.08978 7.13957 7.13765 9.09266 7.13765 11.5009C7.13765 13.9092 9.08978 15.8614 11.4981 15.8614C13.9064 15.8614 15.8575 13.9092 15.8575 11.5009C15.8575 9.09266 13.9064 7.13957 11.4981 7.13957ZM11.4981 8.67003C15.2404 8.67003 15.2452 14.3319 11.4981 14.3319C7.75673 14.3319 7.75098 8.67003 11.4981 8.67003Z" fill="white"/>
</g>
<defs>
<linearGradient id="paint0_linear" x1="1.48157" y1="21.531" x2="22.8576" y2="3.03023" gradientUnits="userSpaceOnUse">
<stop stop-color="#FFDD55"/>
<stop offset="0.5" stop-color="#FF543E"/>
<stop offset="1" stop-color="#C837AB"/>
</linearGradient>
<clipPath id="clip0">
<rect width="23" height="23" fill="white"/>
</clipPath>
</defs>
</svg>
