<svg width="50" height="50" viewBox="0 0 50 50" fill="none" xmlns="http://www.w3.org/2000/svg">
<path d="M48.8186 23.3951C48.0702 22.7047 47.052 22.2782 46.0251 22.2248C44.859 22.1645 43.7664 22.5803 42.9527 23.3944L37.3932 28.8956C37.2833 28.7052 37.1578 28.5255 37.0171 28.3588C36.3331 27.5467 35.3329 27.0996 34.2011 27.0996H26.4183C24.9508 27.0996 23.5191 26.9092 22.1634 26.5343C18.6287 25.5566 15.2519 26.2707 12.3974 28.6007C11.2366 29.5483 10.3897 30.579 9.85414 31.3305L8.45872 29.9763C8.27523 29.7981 8.02651 29.697 7.77055 29.697C7.76826 29.697 7.76635 29.697 7.76406 29.697C7.49894 29.6989 7.24259 29.8092 7.05872 29.9999L0.275046 37.0422C0.0934666 37.2307 -0.00533407 37.484 0.000387974 37.7457C0.00611002 38.0077 0.115592 38.2565 0.305182 38.4369L11.7787 49.3618C11.969 49.543 12.2131 49.6334 12.4569 49.6334C12.7129 49.6334 12.9688 49.5338 13.1615 49.3362L19.8818 42.4416C20.0653 42.2531 20.1672 41.9956 20.1622 41.7324C20.1573 41.473 20.0485 41.2228 19.8624 41.0419L19.2772 40.4743L20.6165 40.3236C21.4268 40.2294 22.2508 40.1817 23.0663 40.1817H34.9076C36.8317 40.1817 38.4659 39.761 39.7652 38.9309C39.7759 38.924 39.7865 38.9168 39.7972 38.9095C40.2626 38.586 40.6849 38.2027 41.0519 37.7705L49.0315 28.3829C50.3971 26.7765 50.3117 24.7719 48.8186 23.3951ZM12.4313 47.2672L2.37809 37.6945L7.79382 32.0721L17.7883 41.7709L12.4313 47.2672ZM47.5327 27.1088L39.5531 36.4967C39.2998 36.7947 39.0095 37.0594 38.6894 37.2837C37.714 37.9013 36.4418 38.2149 34.9076 38.2149H23.066C22.1752 38.2149 21.2746 38.2671 20.393 38.3697L17.4488 38.7001L11.2843 32.7179C11.7127 32.0827 12.5004 31.0562 13.6414 30.1247C16.0133 28.1883 18.7042 27.618 21.6389 28.4302C23.1655 28.8525 24.7734 29.0668 26.4183 29.0668H34.2011C35.5988 29.0668 35.9719 30.2776 35.9719 30.9929C35.9719 31.5155 35.804 32.0129 35.5114 32.3578C35.194 32.7312 34.7428 32.9205 34.1702 32.9205H27.3953C26.8521 32.9205 26.4118 33.361 26.4118 33.9043C26.4118 34.4475 26.8521 34.8877 27.3953 34.8877H34.1702C35.3138 34.8877 36.3224 34.4414 37.0106 33.6311C37.5832 32.9575 37.9097 32.0717 37.9372 31.1249L44.3402 24.789C45.2553 23.8739 46.685 24.1035 47.485 24.8413C47.8985 25.2228 48.4547 26.0242 47.5327 27.1088Z" fill="white"/>
<path d="M24.3279 33.6422C24.2039 33.1131 23.6748 32.7854 23.1457 32.909C22.617 33.033 22.2885 33.5621 22.4129 34.0912L22.422 34.1312C22.5285 34.5844 22.9324 34.8904 23.3788 34.8904C23.4531 34.8904 23.5287 34.882 23.6042 34.8644C24.1333 34.7404 24.4614 34.211 24.3374 33.6822L24.3279 33.6422Z" fill="white"/>
<path d="M6.64827 21.1426H16.2323C16.7542 21.1426 17.2371 20.9732 17.63 20.6871C18.0229 20.9732 18.5059 21.1426 19.0277 21.1426H28.6122C29.134 21.1426 29.617 20.9732 30.0099 20.6871C30.4028 20.9732 30.8857 21.1426 31.4076 21.1426H40.9916C42.3046 21.1426 43.3728 20.0741 43.3728 18.7611V14.2918C43.3728 12.2845 42.2493 10.5408 40.5678 9.68056C41.3826 8.69789 41.8732 7.43752 41.8732 6.06423C41.8732 2.93579 39.328 0.390625 36.1996 0.390625C33.0712 0.390625 30.526 2.93579 30.526 6.06423C30.526 7.43752 31.0166 8.69828 31.8314 9.68056C31.1047 10.0529 30.4825 10.5904 30.0099 11.2423C29.5372 10.59 28.915 10.0525 28.188 9.68056C29.0028 8.69828 29.4934 7.43752 29.4934 6.06423C29.4934 2.93579 26.9482 0.390625 23.8198 0.390625C20.6913 0.390625 18.1462 2.93579 18.1462 6.06423C18.1462 7.43752 18.6371 8.69828 19.4519 9.68094C18.7248 10.0529 18.1027 10.5904 17.63 11.2427C17.1574 10.5904 16.5352 10.0529 15.8081 9.68056C16.6229 8.69828 17.1135 7.43752 17.1135 6.06461C17.1135 2.93579 14.5683 0.390625 11.4399 0.390625C8.31186 0.390625 5.76669 2.93579 5.76669 6.06461C5.76669 7.43752 6.25726 8.69828 7.07208 9.68094C5.39056 10.5412 4.26675 12.2852 4.26675 14.2922V18.7611C4.26675 20.0741 5.33525 21.1426 6.64827 21.1426ZM36.2 2.35787C38.2435 2.35787 39.9063 4.02031 39.9063 6.06423C39.9063 8.10776 38.2435 9.77059 36.2 9.77059C34.1561 9.77059 32.4936 8.10814 32.4936 6.06423C32.4932 4.02031 34.1561 2.35787 36.2 2.35787ZM33.6445 11.1275C34.4132 11.517 35.281 11.7378 36.1996 11.7378C37.1186 11.7378 37.9864 11.517 38.7547 11.1275C40.2832 11.3937 41.4059 12.711 41.4059 14.2918V18.7611C41.4059 18.9896 41.2201 19.1753 40.9916 19.1753H31.4076C31.1795 19.1753 30.9937 18.9896 30.9937 18.7611V14.2918C30.9933 12.7113 32.1163 11.3937 33.6445 11.1275ZM23.8201 2.35787C25.8637 2.35787 27.5265 4.02031 27.5265 6.06423C27.5265 8.10776 25.8637 9.77059 23.8201 9.77059C21.7762 9.77059 20.1138 8.10814 20.1138 6.06423C20.1138 4.02031 21.7762 2.35787 23.8201 2.35787ZM21.2651 11.1275C22.0333 11.517 22.9012 11.7378 23.8201 11.7378C24.7391 11.7378 25.6066 11.517 26.3752 11.1275C27.9034 11.3937 29.0264 12.711 29.0264 14.2918V18.7611C29.0264 18.9896 28.8407 19.1753 28.6122 19.1753H19.0281C18.7996 19.1753 18.6138 18.9896 18.6138 18.7611V14.2918C18.6138 12.7113 19.7369 11.3937 21.2651 11.1275ZM11.4403 2.35787C13.4838 2.35787 15.1467 4.02031 15.1467 6.06423C15.1467 8.10776 13.4838 9.77059 11.4403 9.77059C9.39676 9.77059 7.73393 8.10776 7.73393 6.06423C7.73393 4.02031 9.39676 2.35787 11.4403 2.35787ZM6.23399 14.2918C6.23399 12.7113 7.35704 11.3937 8.88521 11.1275C9.65387 11.517 10.5213 11.7378 11.4403 11.7378C12.3593 11.7378 13.2267 11.517 13.9954 11.1275C15.5239 11.3937 16.6466 12.711 16.6466 14.2918V18.7611C16.6466 18.9896 16.4608 19.1753 16.2323 19.1753H6.64827C6.41977 19.1753 6.23399 18.9896 6.23399 18.7611V14.2918Z" fill="white"/>
</svg>
