<svg width="23" height="23" viewBox="0 0 23 23" fill="none" xmlns="http://www.w3.org/2000/svg">
<path d="M18.8861 22.6062C13.967 23.1313 9.03298 23.1313 4.11386 22.6062C2.15239 22.3969 0.603111 20.8476 0.393768 18.886C-0.131256 13.9668 -0.131256 9.03298 0.393768 4.11386C0.603111 2.15239 2.15239 0.603111 4.11386 0.393768C9.03298 -0.131256 13.9668 -0.131256 18.886 0.393768C20.8476 0.603111 22.3969 2.15239 22.6062 4.11386C23.1313 9.03298 23.1313 13.9668 22.6062 18.886C22.3969 20.8476 20.8478 22.3969 18.8861 22.6062Z" fill="url(#paint0_linear)"/>
<path d="M21.3553 4.9458C21.1696 3.20526 19.7949 1.8304 18.0542 1.64457C13.6891 1.17886 9.31095 1.17886 4.9458 1.64457C3.20526 1.8304 1.8304 3.20526 1.64457 4.9458C1.17886 9.31095 1.17886 13.6891 1.64457 18.054C1.8304 19.7948 3.20526 21.1696 4.9458 21.3553C9.31095 21.8212 13.6891 21.8212 18.054 21.3553C19.7948 21.1696 21.1696 19.7948 21.3553 18.054C21.8212 13.6891 21.8212 9.31095 21.3553 4.9458Z" fill="url(#paint1_linear)"/>
<path d="M0.344604 18.4092C0.360397 18.5682 0.376717 18.7271 0.393738 18.8861C0.603081 20.8476 2.15236 22.3969 4.11401 22.6062C9.03313 23.1312 13.967 23.1312 18.8861 22.6062C20.8478 22.3969 22.3969 20.8476 22.6062 18.8861C22.6232 18.7271 22.6395 18.5682 22.6555 18.4092H0.344604Z" fill="url(#paint2_linear)"/>
<path d="M22.9951 10.6918L18.2209 5.91777C17.6859 6.22363 17.2144 6.39331 16.8592 6.48737C16.6595 6.54089 16.4965 6.57001 16.3793 6.58598C15.8409 6.03411 15.0892 5.69141 14.2571 5.69141C12.6199 5.69141 11.2924 7.01871 11.2924 8.65625C11.2924 8.71539 11.294 8.77382 11.2979 8.83208C11.3058 8.97404 11.3238 9.11354 11.3517 9.24918C10.6683 9.23901 8.44673 9.05651 6.32803 7.24033C6.32786 7.24033 6.32786 7.24016 6.32786 7.24016H6.32768L5.32852 6.24082C5.32852 6.24082 4.15634 8.2867 5.87969 9.83913C5.95532 9.92354 6.0385 10.0069 6.12957 10.0888C6.13676 10.0969 6.14431 10.1048 6.1515 10.1129C5.92532 10.0976 5.245 10.0299 4.85123 9.75175C4.85123 9.75175 4.77209 11.0022 5.81389 11.9227L6.65512 12.7712C6.39893 12.7924 6.11553 12.7873 5.91847 12.701C5.91847 12.701 6.0929 13.4417 6.76707 14.0344L7.94557 15.2191C7.23858 15.6309 6.00095 16.1463 4.37183 16.0147L11.5209 23C13.9772 22.9993 16.4335 22.8681 18.8862 22.6062C20.8478 22.3969 22.3971 20.8476 22.6064 18.8862C22.8975 16.1575 23.0269 13.4243 22.9951 10.6918Z" fill="url(#paint3_linear)"/>
<path d="M18.6284 7.06924C18.1195 7.33544 17.353 7.45845 17.0989 7.4939C17.0968 7.48161 17.0947 7.46986 17.0926 7.4581C17.9565 6.92377 18.2209 5.91777 18.2209 5.91777C17.6859 6.22363 17.2144 6.39331 16.8592 6.48737C16.6595 6.54089 16.4965 6.56984 16.3793 6.58598C15.8409 6.03394 15.0892 5.69141 14.2571 5.69141C12.6199 5.69141 11.2924 7.01853 11.2924 8.65625C11.2924 8.71521 11.294 8.77382 11.2979 8.8319C11.3058 8.97386 11.3238 9.11337 11.3517 9.24901C10.5593 9.23725 7.69884 8.99422 5.32851 6.24082C5.32851 6.24082 4.00858 8.54377 6.22765 10.1169C6.22765 10.1169 5.32851 10.0888 4.85122 9.75175C4.85122 9.75175 4.71084 11.9708 7.26665 12.6727C7.26665 12.6727 6.36803 12.8977 5.91829 12.701C5.91829 12.701 6.36786 14.6109 8.61483 14.7516C8.61483 14.7516 7.00326 16.227 4.37164 16.0147C5.66595 16.8341 7.20049 17.3084 8.84576 17.3084C13.4718 17.3084 17.2221 13.5583 17.2221 8.93227C17.2221 8.87454 17.2216 8.81681 17.2204 8.75908C17.2216 8.72486 17.2221 8.69082 17.2221 8.65625C17.2221 8.63221 17.2216 8.60817 17.2212 8.58413C18.0765 8.01418 18.6284 7.06924 18.6284 7.06924Z" fill="white"/>
<defs>
<linearGradient id="paint0_linear" x1="7.63645" y1="3.23376" x2="13.4538" y2="15.6802" gradientUnits="userSpaceOnUse">
<stop stop-color="#00C3FF"/>
<stop offset="1" stop-color="#00B0ED"/>
</linearGradient>
<linearGradient id="paint1_linear" x1="16.3643" y1="14.1094" x2="-17.0517" y2="-3.8162" gradientUnits="userSpaceOnUse">
<stop stop-color="#00B0ED" stop-opacity="0"/>
<stop offset="1" stop-color="#00A2CE"/>
</linearGradient>
<linearGradient id="paint2_linear" x1="11.5" y1="19.6481" x2="11.5" y2="22.6618" gradientUnits="userSpaceOnUse">
<stop stop-color="#00B0ED" stop-opacity="0"/>
<stop offset="1" stop-color="#00A2CE"/>
</linearGradient>
<linearGradient id="paint3_linear" x1="21.9857" y1="21.6556" x2="10.7495" y2="10.4194" gradientUnits="userSpaceOnUse">
<stop stop-color="#00B0ED" stop-opacity="0"/>
<stop offset="1" stop-color="#00A2CE"/>
</linearGradient>
</defs>
</svg>
