<svg width="98" height="181" viewBox="0 0 98 181" fill="none" xmlns="http://www.w3.org/2000/svg">
<path d="M20.6071 85.0039C55.9624 63.2522 67.0832 36.7263 62.4331 0C62.4331 0 72.7174 22.7531 73.8984 30.7411C75.0056 38.1469 76.0881 40.4059 74.7103 45.0171C75.0453 44.9807 75.3752 44.9104 75.6944 44.8075C76.4628 44.5592 77.1497 44.1258 77.6873 43.5499C78.2284 42.9264 78.6302 42.2054 78.8683 41.4306C78.7224 42.2615 78.3956 43.0545 77.9087 43.7595C77.4064 44.4496 76.7298 45.01 75.9405 45.3897C75.5469 45.5499 75.1444 45.6898 74.7349 45.8089C75.1541 45.9027 75.5835 45.9496 76.0143 45.9487C76.9169 45.9671 77.8084 45.7582 78.5976 45.3432C79.4317 44.8775 80.1527 44.2505 80.7136 43.5033C80.2378 44.3362 79.5742 45.0598 78.7699 45.6226C77.9696 46.1839 77.0281 46.5371 76.0389 46.6473C75.4336 46.7055 74.8235 46.7055 74.2182 46.6473C72.7912 52.1202 82.116 59.8055 86.52 65.2783C90.924 70.7512 100.593 76.3172 97.3456 81.5804C94.0979 86.8437 86.8891 88.0314 85.6097 89.6849C84.3303 91.3384 85.3637 94.133 86.7415 96.0893C87.5739 96.9932 88.1065 98.1092 88.2728 99.2979C88.4391 100.487 88.2316 101.695 87.6764 102.773C87.2456 103.425 86.6785 103.986 86.0099 104.423C85.3414 104.859 84.5856 105.162 83.789 105.312C81.7715 105.312 77.2691 105.964 75.227 105.847C77.146 106.127 81.5747 106.779 83.543 106.895C84.6994 107.594 87.1597 109.224 86.3724 111.856C85.4128 115.163 83.0263 116.863 82.4358 118.493C81.8453 120.123 85.6589 125.922 85.093 131.465C84.6316 134.789 82.8469 137.821 80.1033 139.942C77.3597 142.063 73.8643 143.113 70.3308 142.876C64.4506 142.434 59.8005 141.619 55.1259 141.037C46.9187 139.731 38.8672 137.664 31.0882 134.865C27.0322 133.398 23.2142 131.399 19.7459 128.926C18.0363 127.635 16.5933 126.056 15.4895 124.269C14.4044 122.461 13.9562 120.372 14.2101 118.307C13.8546 120.388 14.1989 122.522 15.1943 124.408C16.2294 126.274 17.6228 127.94 19.3031 129.322C22.693 132.019 26.4705 134.246 30.5223 135.936C35.1841 137.91 39.9852 139.576 44.8908 140.92C35.3446 144.087 29.8088 160.04 39.2073 181C-1.26552 156.104 -15.2649 107.035 20.6071 85.0039Z" fill="black" fill-opacity="0.07"/>
</svg>
